<svg width="1208" height="343" viewBox="0 0 1208 343" fill="none" xmlns="http://www.w3.org/2000/svg">
<rect width="100" height="100" rx="11" fill="#FF6016"/>
<rect x="120" width="100" height="100" rx="11" fill="#FC3F3F"/>
<rect x="240" width="100" height="100" rx="11" fill="#FF6016"/>
<rect y="120" width="100" height="100" rx="11" fill="#2EAAFA"/>
<rect x="120" y="120" width="100" height="100" rx="11" fill="#FFBD73"/>
<rect x="240" y="120" width="100" height="100" rx="11" fill="#2EAAFA"/>
<rect y="243" width="100" height="100" rx="11" fill="#FC3F3F"/>
<rect x="120" y="243" width="100" height="100" rx="11" fill="#FF6016"/>
<rect x="240" y="243" width="100" height="100" rx="11" fill="#FC3F3F"/>
<path d="M634.142 283.637C654.3 283.637 669.806 278.208 680.66 267.35C691.514 256.492 696.941 240.98 696.941 220.814V129.858C696.941 119.987 695.531 111.174 692.712 103.418C689.893 95.6617 685.735 89.1044 680.237 83.7458C674.88 78.2461 668.326 74.0861 660.573 71.2658C652.82 68.4454 644.01 67.0353 634.142 67.0353H523.346V283.637H634.142ZM480 327V23.6725H634.142C650.353 23.6725 664.943 26.2108 677.911 31.2875C691.021 36.2231 702.157 43.3444 711.319 52.6515C720.623 61.8176 727.741 72.958 732.675 86.0725C737.75 99.1871 740.287 113.782 740.287 129.858V220.814C740.287 236.89 737.75 251.485 732.675 264.6C727.741 277.715 720.623 288.925 711.319 298.233C702.157 307.399 691.021 314.52 677.911 319.597C664.943 324.532 650.353 327 634.142 327H480Z" fill="white"/>
<path d="M849.392 101.725V327H807.737V101.725H849.392ZM805.623 15H851.506V58.3627H805.623V15Z" fill="white"/>
<path d="M985.139 327L895.064 101.725H938.41L1006.71 277.08L1075.21 101.725H1118.56L1028.48 327H985.139Z" fill="white"/>
<path d="M1205.89 101.725V327H1164.23V101.725H1205.89ZM1162.12 15H1208V58.3627H1162.12V15Z" fill="white"/>
</svg>
